<?xml version="1.0" encoding="UTF-8"?>
<!DOCTYPE svg PUBLIC "-//W3C//DTD SVG 1.1//EN" "http://www.w3.org/Graphics/SVG/1.1/DTD/svg11.dtd">
<!-- Creator: CorelDRAW -->
<svg xmlns="http://www.w3.org/2000/svg" xml:space="preserve" width="11in" height="8.5in" shape-rendering="geometricPrecision" text-rendering="geometricPrecision" image-rendering="optimizeQuality" fill-rule="evenodd" clip-rule="evenodd"
viewBox="0 0 11 8.5">
 <g id="Layer_x0020_1">
  <metadata id="CorelCorpID_0Corel-Layer"/>
  <polygon fill="white" points="-0.0250079,1.05106 0.373547,0.926618 1.17066,1.17549 1.56922,1.05106 1.68363,1.05106 1.70489,1.05106 1.70668,1.05106 2.0317,1.05106 2.05163,1.04347 2.09148,1.05864 2.11141,1.05106 2.13134,1.05106 2.33712,1.05106 2.73548,0.90015 3.52823,1.20346 3.92659,1.05256 4.46367,1.05208 4.86149,0.903039 5.65881,1.20048 6.05663,1.05143 6.57533,1.05106 6.60237,1.05106 6.62224,1.05106 6.68231,1.05106 6.88059,1.05106 6.90046,1.05106 6.92033,1.05106 6.98041,1.05106 7.20617,1.05106 7.60472,0.902421 8.40184,1.19969 8.80039,1.05106 8.99453,1.05106 8.99473,1.05106 9.39328,0.902421 10.1904,1.19969 10.589,1.05106 8.99533,1.05106 9.39388,0.905445 10.191,1.19667 10.5895,1.05106 10.191,1.19969 9.39388,0.902421 8.99533,1.05106 8.99533,1.05106 9.40497,0.905504 10.1793,1.21393 10.5889,1.06838 10.9809,1.09407 10.9829,1.0942 10.9846,1.09431 10.9846,2.21562 -0.0250079,2.21562 -0.0250079,1.5363 -0.0250079,1.43237 -0.0250079,1.4248 -0.0250079,1.42259 -0.0250079,1.37498 -0.0250079,1.36742 -0.0250079,1.30693 -0.0250079,1.2847 "/>
 </g>
</svg>
