<?xml version="1.0" encoding="UTF-8"?>
<!DOCTYPE svg PUBLIC "-//W3C//DTD SVG 1.1//EN" "http://www.w3.org/Graphics/SVG/1.1/DTD/svg11.dtd">
<!-- Creator: CorelDRAW -->
<svg xmlns="http://www.w3.org/2000/svg" xml:space="preserve" width="8.5in" height="11in" shape-rendering="geometricPrecision" text-rendering="geometricPrecision" image-rendering="optimizeQuality" fill-rule="evenodd" clip-rule="evenodd"
viewBox="0 0 8.5 11">
 <defs>
   <linearGradient id="id0" gradientUnits="userSpaceOnUse" x1="2.57515" y1="3.61401" x2="5.92789" y2="7.52793">
    <stop offset="0" stop-color="#FFFCC8"/>
    <stop offset="1" stop-color="#007CC3"/>
   </linearGradient>
 </defs>
 <g id="Layer_x0020_1">
  <metadata id="CorelCorpID_0Corel-Layer"/>
  <path fill="url(#id0)" d="M8.49904 4.49214l0 2.35167c-0.263819,-0.361795 -1.31911,0 -1.97866,0 -0.50126,-0.284268 -1.53016,0 -2.29524,0 -0.914579,0 -1.85554,-0.335953 -2.74374,0 -0.492465,0 -0.984933,0 -1.4774,0l0 -0.930331 0.812173 -0.13589c0.925071,0.345697 1.42803,-0.238933 2.14205,-0.358398 0.41474,-0.0693937 0.196307,0.739858 1.24422,-0.208177 0.190043,-0.50202 0.749441,-0.125394 1.12417,-0.188091 0.400567,-0.0670197 0.906661,0.305283 1.2017,-0.201059 0.339083,-0.0567323 1.03909,-0.467016 1.37818,-0.523748l0.592551 0.194024z"/>
 </g>
</svg>
